<?xml version="1.0" encoding="UTF-8"?>
<!DOCTYPE svg PUBLIC "-//W3C//DTD SVG 1.1//EN" "http://www.w3.org/Graphics/SVG/1.1/DTD/svg11.dtd">
<svg xmlns="http://www.w3.org/2000/svg" version="1.1" width="1622px" height="402px" style="shape-rendering:geometricPrecision; text-rendering:geometricPrecision; image-rendering:optimizeQuality; fill-rule:evenodd; clip-rule:evenodd" xmlns:xlink="http://www.w3.org/1999/xlink">
<g><path style="opacity:0.985" fill="#0060b0" d="M 615.5,-0.5 C 623.833,-0.5 632.167,-0.5 640.5,-0.5C 718.433,7.621 774.933,46.621 810,116.5C 837.777,183.051 832.443,246.717 794,307.5C 788.982,314.863 783.482,321.863 777.5,328.5C 799.833,351.167 822.167,373.833 844.5,396.5C 823.508,397.666 802.508,397.833 781.5,397C 759.23,395.114 740.73,385.948 726,369.5C 659.849,406.303 593.349,406.803 526.5,371C 462.856,331.757 429.856,274.424 427.5,199C 430.431,122.431 464.431,64.4312 529.5,25C 556.451,10.2677 585.118,1.76769 615.5,-0.5 Z M 612.5,67.5 C 667.249,63.2933 709.415,83.9599 739,129.5C 762.55,172.519 763.216,215.852 741,259.5C 737.439,266.552 732.939,272.885 727.5,278.5C 716.318,267.484 704.985,256.651 693.5,246C 681.295,237.07 667.629,231.736 652.5,230C 630.492,229.167 608.492,229.334 586.5,230.5C 615.681,260.514 645.348,290.014 675.5,319C 618.766,339.775 569.933,327.942 529,283.5C 494.782,238.287 489.115,189.62 512,137.5C 533.86,97.4754 567.36,74.1421 612.5,67.5 Z"/></g>
<g><path style="opacity:0.986" fill="#0060b0" d="M 1043.5,401.5 C 1039.83,401.5 1036.17,401.5 1032.5,401.5C 960.245,396.605 915.412,358.938 898,288.5C 896.565,281.225 895.565,273.892 895,266.5C 894.5,180.834 894.333,95.1673 894.5,9.5C 909.837,9.33341 925.17,9.50008 940.5,10C 951.152,13.3167 958.652,20.15 963,30.5C 964.321,103.123 964.988,175.789 965,248.5C 965.483,267.923 970.15,286.256 979,303.5C 992.672,324.421 1012.17,334.421 1037.5,333.5C 1076.23,332.947 1099.39,313.614 1107,275.5C 1108.43,268.898 1109.43,262.232 1110,255.5C 1110.33,183.167 1110.67,110.833 1111,38.5C 1112.62,25.4078 1119.46,16.2411 1131.5,11C 1148.11,9.55897 1164.78,9.05897 1181.5,9.5C 1181.67,92.834 1181.5,176.167 1181,259.5C 1179.83,301.727 1164.33,337.56 1134.5,367C 1108,388.666 1077.67,400.166 1043.5,401.5 Z"/></g>
<g><path style="opacity:0.986" fill="#0060b0" d="M -0.5,388.5 C -0.5,387.5 -0.5,386.5 -0.5,385.5C 44.2672,278.722 88.7672,171.722 133,64.5C 155.204,23.9832 189.037,8.14982 234.5,17C 263.061,26.5591 282.894,45.3924 294,73.5C 337.069,178.207 380.236,282.874 423.5,387.5C 405.843,388.666 388.176,388.833 370.5,388C 357.944,385.144 347.778,378.644 340,368.5C 335.569,361.212 331.902,353.545 329,345.5C 295.195,262.42 261.195,179.42 227,96.5C 223.975,89.6325 218.809,85.6325 211.5,84.5C 203.456,86.0352 197.956,90.7019 195,98.5C 158.244,188.444 120.91,278.11 83,367.5C 76.0599,377.102 66.8933,383.602 55.5,387C 36.8884,388.448 18.2218,388.948 -0.5,388.5 Z"/></g>
<g><path style="opacity:0.986" fill="#0060b0" d="M 1621.5,387.5 C 1621.5,387.833 1621.5,388.167 1621.5,388.5C 1602.12,388.936 1582.79,388.436 1563.5,387C 1548.15,381.653 1537.32,371.486 1531,356.5C 1495.86,270.086 1460.53,183.753 1425,97.5C 1414.33,80.1667 1403.67,80.1667 1393,97.5C 1357,184.833 1321,272.167 1285,359.5C 1277.6,374.573 1265.76,384.073 1249.5,388C 1231.83,388.667 1214.17,388.667 1196.5,388C 1241.46,279.906 1286.3,171.739 1331,63.5C 1354.57,22.466 1389.4,7.29936 1435.5,18C 1464.22,29.7181 1483.72,50.2181 1494,79.5C 1536.28,182.37 1578.78,285.037 1621.5,387.5 Z"/></g>
</svg>
