<?xml version="1.0" encoding="utf-8"?>
<!-- Generator: Adobe Illustrator 24.3.0, SVG Export Plug-In . SVG Version: 6.00 Build 0)  -->
<svg version="1.1" id="katman_1" xmlns="http://www.w3.org/2000/svg" xmlns:xlink="http://www.w3.org/1999/xlink" x="0px" y="0px"
	 viewBox="0 0 2500 2500" style="enable-background:new 0 0 2500 2500;" xml:space="preserve">
<style type="text/css">
	.st0{fill-rule:evenodd;clip-rule:evenodd;fill:#FFFFFF;}
	.st1{fill-rule:evenodd;clip-rule:evenodd;fill:#C6232D;}
</style>
<g>
	<path class="st0" d="M0,0h2500v2500H0V0z"/>
	<path class="st1" d="M1467.4,1289.8c-2.3,5.7-3.4,11.3-5.7,17c-27.3-94.3-107.9-132.8-157.8-85.2c0,0,44.3-35.2,98.8,11.3
		c11.4,11.3,39.7,45.4,39.7,111.3c-9.1,11.3-18.2,22.7-30.6,31.8c25-95.4-26.1-169.2-93.1-153.3c-1.1,0,55.7-8,78.4,59.1
		c5.7,15.9,12.5,60.2-20.4,117c-13.6,5.7-27.2,10.2-42,12.5c69.3-70.4,62.4-160.1-3.4-180.5c-1.1,0,52.2,21.6,38.6,92
		c-3.4,15.9-19.3,56.8-77.2,89.7c-6.8-1.1-14.8-2.3-22.7-3.4c-6.8-2.3-12.5-4.5-19.3-6.8c95.4-26.1,134-106.7,86.3-157.8
		c0,0,35.2,44.3-11.4,98.8c-10.2,11.3-45.4,39.7-111.3,39.7c-11.3-9.1-22.7-18.2-31.8-29.5c95.4,23.8,170.3-26.1,153.3-94.3
		c0,0,9.1,55.7-59.1,79.5c-14.8,5.7-59.1,12.5-115.8-20.4c-5.9-13-10.1-26.8-12.5-40.9c70.4,68.1,159,61.3,179.4-5.7
		c0,0-20.4,53.4-90.8,39.7c-15.9-3.4-57.9-19.3-90.8-76.1c1.1-8,2.3-15.9,4.5-23.8c1.1-5.7,3.4-11.4,5.7-17
		c26.1,93.1,106.7,131.7,157.8,84c0,0-44.3,35.2-98.8-11.3c-12.5-11.3-39.7-44.3-39.7-110.1c8-11.3,18.2-22.7,28.4-30.6
		c-22.7,93.1,27.2,166.9,94.3,151c1.1,0-55.7,8-78.4-59c-5.7-15.9-12.5-59.1,19.3-114.7c12.5-6.8,26.1-10.2,40.9-13.6
		c-67,70.4-60.2,157.8,5.7,178.3c1.1,0-52.2-20.4-38.6-90.8c3.4-15.9,18.2-56.8,74.9-89.7c8,1.1,17,2.3,26.1,4.6
		c5.7,1.1,10.2,3.4,15.9,4.5c-93.1,27.2-131.7,107.9-84,157.8c0,0-35.2-44.3,12.5-98.8c10.2-11.3,44.3-39.7,109-39.7
		c11.3,8,22.7,18.2,31.8,29.5c-94.3-22.7-166.9,27.3-151,94.3c0,0-9.1-55.6,59.1-79.5c14.8-4.6,57.9-12.5,114.7,20.4
		c6.6,12.9,11.1,26.7,13.6,40.9c-70.4-67-159-60.2-179.4,5.7c0,1.1,20.4-52.2,90.8-38.6c15.9,3.4,57.9,18.2,89.7,75
		C1470.9,1272.5,1469.8,1281.2,1467.4,1289.8L1467.4,1289.8z M523.9,1338.6c20.4,0,25-1.1,36.3-9.1h55.6
		c-21.6,35.2-62.4,59.1-107.9,51.1c-28.4-5.7-53.4-30.6-60.2-57.9c-9.1-42,11.3-82.9,44.3-106.7c25-19.3,65.8-23.8,94.3-8
		c18.2,9.1,27.2,20.4,34.1,34.1c9.1,19.3,10.2,44.3,4.5,65.9H493.2C493.2,1307.9,488.7,1334,523.9,1338.6L523.9,1338.6z
		 M502.3,1265.9h77.2c0,0-6.8-29.5-39.7-23.8C512.5,1246.6,502.3,1265.9,502.3,1265.9z M2355.4,1202.3h-55.7l-62.4,62.4l23.8-128.3
		h-47.7l-46.5,243h47.7l14.8-75l52.2,73.8h54.5l-64.7-93.1L2355.4,1202.3L2355.4,1202.3z M2463.2,1202.3h-22.7l12.5-65.8h-51.1
		l-12.5,65.8h-23.8l-8,42h23.8l-25,132.9h50l26.1-132.9h21.6L2463.2,1202.3z M278.6,1280.7l140.8-170.3h51.1l-51.1,268h-51.1
		l35.2-176l-145.3,176h-48.8l40.9-178.3l-151,178.3H36.8l228.2-268h48.8L278.6,1280.7L278.6,1280.7z M1697.9,1279.5l139.7-170.3
		h52.2l-52.2,268h-51.1l35.2-176l-145.3,176h-48.8l42-178.3l-152.1,178.3h-62.5l228.2-268h48.8L1697.9,1279.5L1697.9,1279.5z
		 M2186.2,1195.5c-18.2,0-36.4,12.5-44.3,23.8l3.4-15.9v-1.1h-48.8l-32.9,176h48.8l17-95.4l1.1,1.1c0-10.2,12.5-28.4,25-37.5
		c8-4.5,15.9-5.7,25-5.7l9.1-45.4L2186.2,1195.5L2186.2,1195.5L2186.2,1195.5z M919,1202.3l-34.1,176h-48.8l35.2-176H919z
		 M882.7,1137.6l-6.8,31.8h48.8l5.7-31.8H882.7z M864.5,1136.5l-48.8,241.9h-50l1.1-3.4c-12.5,4.6-28.4,6.8-45.4,6.8
		c-51.1,0-87.4-42-80.6-93.1c5.7-50,52.2-90.8,103.3-90.8c20.4,0,39.7,6.8,53.4,18.2l15.9-79.5L864.5,1136.5L864.5,1136.5z
		 M729.4,1339.7c29.5,0,55.6-20.4,56.8-51.1c0-22.7-12.5-43.2-42-46.6c-25-3.4-54.5,20.4-59,45.4
		C679.4,1320.4,703.3,1339.7,729.4,1339.7z M1124.5,1202.3l-32.9,176h-48.8v-3.4c-11.3,4.6-26.1,6.8-42,6.8
		c-51.1,0-87.4-40.9-81.7-92c6.8-51.1,53.4-92,104.5-92c19.3,0,36.3,5.7,50,15.9l2.3-11.3H1124.5z M1011,1339.7
		c31.8-2.3,48.8-21.6,51.1-50c2.3-26.1-11.3-45.4-36.3-48.8c-30.7-3.4-59,21.6-61.3,48.8C959.9,1326.1,990.6,1340.9,1011,1339.7z
		 M2076,1204.6l-32.9,176h-48.8l1.1-3.4c-12.5,3.4-26.1,5.7-43.1,5.7c-50,0-86.3-40.9-80.6-92c6.8-49.9,53.3-90.8,104.4-90.8
		c19.3,0,36.4,5.7,50,14.8l2.3-10.2H2076L2076,1204.6z M1963.6,1340.9c31.8-1.1,48.8-21.6,50-50c2.3-25-11.4-45.4-35.2-47.7
		c-31.8-3.4-59.1,20.5-62.4,47.7C1912.5,1327.2,1943.2,1342,1963.6,1340.9L1963.6,1340.9z"/>
</g>
</svg>
